# Blender 4.1.0
# www.blender.org
mtllib bus.mtl
o body
v -1.250000 -2.250000 -4.500000
v 0.500000 -2.250000 -3.250000
v -1.250000 2.250000 -4.500000
v 0.500000 -1.050000 -3.250000
v 1.250000 -2.250000 -4.500000
v 1.250000 2.250000 -4.500000
v 0.500000 -2.250000 -2.050000
v -1.250000 -2.250000 4.500000
v 0.500000 -1.050000 -2.050000
v -1.250000 2.250000 4.500000
v 1.250000 -2.250000 4.500000
v 1.250000 2.250000 4.500000
v 0.500000 -2.250000 3.750000
v 0.500000 -1.050000 3.750000
v 0.500000 -2.250000 2.550000
v 0.500000 -1.050000 2.550000
v -0.500000 -2.250000 -3.250000
v -0.500000 -1.050000 -3.250000
v -0.500000 -2.250000 -2.050000
v -0.500000 -1.050000 -2.050000
v -0.500000 -2.250000 3.750000
v -0.500000 -1.050000 3.750000
v -0.500000 -2.250000 2.550000
v -0.500000 -1.050000 2.550000
v 1.250000 -1.050000 -3.250000
v 1.250000 -2.250000 -3.250000
v 1.250000 -2.250000 2.550000
v 1.250000 -2.250000 -2.050000
v 1.250000 -1.050000 -2.050000
v 1.250000 -1.050000 2.550000
v 1.250000 -1.050000 3.750000
v 1.250000 -2.250000 3.750000
v -1.250000 -1.050000 2.550000
v -1.250000 -1.050000 3.750000
v -1.250000 -2.250000 -3.250000
v -1.250000 -1.050000 -3.250000
v -1.250000 -2.250000 2.550000
v -1.250000 -2.250000 3.750000
v -1.250000 -1.050000 -2.050000
v -1.250000 -2.250000 -2.050000
vn -0.0000 -0.0000 -1.0000
vn 1.0000 -0.0000 -0.0000
vn -0.0000 -0.0000 1.0000
vn -1.0000 -0.0000 -0.0000
vn -0.0000 -1.0000 -0.0000
vn -0.0000 1.0000 -0.0000
vt 0.625000 0.000000
vt 0.375000 0.250000
vt 0.375000 0.000000
vt 0.625000 0.250000
vt 0.441667 0.445833
vt 0.441667 0.318056
vt 0.625000 0.500000
vt 0.375000 0.750000
vt 0.375000 0.500000
vt 0.625000 0.750000
vt 0.441667 0.931944
vt 0.441667 0.804167
vt 0.159722 0.675000
vt 0.159722 0.575000
vt 0.193056 0.575000
vt 0.875000 0.500000
vt 0.625000 0.187500
vt 0.375000 0.187500
vt 0.625000 0.562500
vt 0.375000 1.000000
vt 0.625000 1.000000
vt 0.875000 0.750000
vt 0.875000 0.562500
vt 0.375000 0.562500
vt 0.375000 0.284722
vt 0.375000 0.479167
vt 0.441667 0.479167
vt 0.441667 0.284722
vt 0.375000 0.445833
vt 0.375000 0.318056
vt 0.441667 0.770833
vt 0.375000 0.770833
vt 0.375000 0.965278
vt 0.441667 0.965278
vt 0.375000 0.931944
vt 0.375000 0.804167
vt 0.354167 0.575000
vt 0.354167 0.500000
vt 0.354167 0.750000
vt 0.354167 0.675000
vt 0.320833 0.675000
vt 0.320833 0.750000
vt 0.193056 0.750000
vt 0.193056 0.500000
vt 0.320833 0.500000
vt 0.320833 0.575000
vt 0.193056 0.675000
vt 0.159722 0.750000
vt 0.125000 0.750000
vt 0.125000 0.500000
vt 0.159722 0.500000
s 0
usemtl Material.001
f 3/1/1 5/2/1 1/3/1
f 6/4/2 30/5/2 29/6/2
f 12/7/3 8/8/3 11/9/3
f 10/10/4 39/11/4 33/12/4
f 17/13/5 2/14/5 7/15/5
f 6/16/6 10/10/6 12/7/6
f 25/17/3 2/3/3 26/18/3
f 29/19/1 7/8/1 9/10/1
f 9/10/2 2/20/2 4/21/2
f 4/22/5 29/19/5 9/10/5
f 14/1/1 32/18/1 13/3/1
f 15/8/3 30/19/3 16/10/3
f 14/21/2 15/8/2 16/10/2
f 16/10/5 31/23/5 14/22/5
f 17/3/3 36/17/3 35/18/3
f 20/10/1 40/24/1 39/19/1
f 17/20/4 20/10/4 18/21/4
f 18/22/5 39/19/5 36/23/5
f 34/17/1 21/3/1 38/18/1
f 24/10/3 37/24/3 23/8/3
f 21/20/4 24/10/4 23/8/4
f 24/10/5 34/23/5 33/19/5
f 3/1/1 6/4/1 5/2/1
f 26/25/2 5/2/2 6/4/2
f 12/7/2 11/9/2 32/26/2
f 12/7/2 32/26/2 31/27/2
f 25/28/2 26/25/2 6/4/2
f 27/29/2 28/30/2 29/6/2
f 29/6/2 25/28/2 6/4/2
f 6/4/2 12/7/2 31/27/2
f 30/5/2 27/29/2 29/6/2
f 6/4/2 31/27/2 30/5/2
f 12/7/3 10/10/3 8/8/3
f 34/31/4 38/32/4 8/8/4
f 3/21/4 1/20/4 35/33/4
f 3/21/4 35/33/4 36/34/4
f 34/31/4 8/8/4 10/10/4
f 40/35/4 37/36/4 33/12/4
f 33/12/4 34/31/4 10/10/4
f 10/10/4 3/21/4 36/34/4
f 39/11/4 40/35/4 33/12/4
f 10/10/4 36/34/4 39/11/4
f 13/37/5 32/38/5 11/9/5
f 11/9/5 8/8/5 38/39/5
f 11/9/5 38/39/5 21/40/5
f 13/37/5 11/9/5 21/40/5
f 23/41/5 37/42/5 40/43/5
f 13/37/5 21/40/5 23/41/5
f 28/44/5 27/45/5 15/46/5
f 15/46/5 13/37/5 23/41/5
f 23/41/5 40/43/5 19/47/5
f 17/13/5 35/48/5 1/49/5
f 15/46/5 23/41/5 19/47/5
f 17/13/5 1/49/5 5/50/5
f 15/46/5 19/47/5 17/13/5
f 7/15/5 28/44/5 15/46/5
f 5/50/5 26/51/5 2/14/5
f 7/15/5 15/46/5 17/13/5
f 17/13/5 5/50/5 2/14/5
f 6/16/6 3/22/6 10/10/6
f 25/17/3 4/1/3 2/3/3
f 29/19/1 28/24/1 7/8/1
f 9/10/2 7/8/2 2/20/2
f 4/22/5 25/23/5 29/19/5
f 14/1/1 31/17/1 32/18/1
f 15/8/3 27/24/3 30/19/3
f 14/21/2 13/20/2 15/8/2
f 16/10/5 30/19/5 31/23/5
f 17/3/3 18/1/3 36/17/3
f 20/10/1 19/8/1 40/24/1
f 17/20/4 19/8/4 20/10/4
f 18/22/5 20/10/5 39/19/5
f 34/17/1 22/1/1 21/3/1
f 24/10/3 33/19/3 37/24/3
f 21/20/4 22/21/4 24/10/4
f 24/10/5 22/22/5 34/23/5
