# Blender 4.1.0
# www.blender.org
mtllib wheel.mtl
o Cylinder
v 0.600000 0.000000 0.336044
v -0.714891 0.065559 0.329587
v 0.600000 -0.065559 0.329587
v -0.714891 0.128598 0.310464
v 0.600000 -0.128599 0.310464
v -0.714891 0.186696 0.279410
v 0.600000 -0.186696 0.279410
v -0.714891 0.237619 0.237619
v 0.600000 -0.237619 0.237619
v -0.714891 0.279410 0.186696
v 0.600000 -0.279410 0.186696
v -0.714891 0.310464 0.128599
v 0.600000 -0.310464 0.128599
v -0.714891 0.329587 0.065559
v 0.600000 -0.329587 0.065559
v -0.714891 0.336044 0.000000
v 0.600000 -0.336044 0.000000
v -0.714891 0.329587 -0.065559
v 0.600000 -0.329587 -0.065559
v -0.714891 0.310464 -0.128599
v 0.600000 -0.310464 -0.128599
v -0.714891 0.279410 -0.186696
v 0.600000 -0.279410 -0.186696
v -0.714891 0.237619 -0.237619
v 0.600000 -0.237619 -0.237619
v -0.714891 0.186696 -0.279410
v 0.600000 -0.186696 -0.279410
v -0.714891 0.128598 -0.310464
v 0.600000 -0.128598 -0.310464
v -0.714891 0.065559 -0.329587
v 0.600000 -0.065559 -0.329587
v -0.714891 -0.000000 -0.336044
v 0.600000 0.000000 -0.336044
v -0.714891 -0.065559 -0.329587
v 0.600000 0.065559 -0.329587
v -0.714891 -0.128599 -0.310464
v 0.600000 0.128599 -0.310464
v -0.714891 -0.186696 -0.279410
v 0.600000 0.186696 -0.279410
v -0.714891 -0.237619 -0.237619
v 0.600000 0.237619 -0.237619
v -0.714891 -0.279410 -0.186696
v 0.600000 0.279410 -0.186696
v -0.714891 -0.310464 -0.128599
v 0.600000 0.310464 -0.128599
v -0.714891 -0.329587 -0.065559
v 0.600000 0.329587 -0.065559
v -0.714891 -0.336044 0.000000
v 0.600000 0.336044 0.000000
v -0.714891 -0.329587 0.065559
v 0.600000 0.329587 0.065559
v -0.714891 -0.310464 0.128599
v 0.600000 0.310464 0.128599
v -0.714891 -0.279410 0.186696
v 0.600000 0.279410 0.186696
v -0.714891 -0.237619 0.237619
v 0.600000 0.237619 0.237619
v -0.714891 -0.186696 0.279410
v 0.600000 0.186696 0.279410
v -0.714891 -0.128599 0.310464
v 0.600000 0.128599 0.310464
v -0.714891 -0.000000 0.336044
v 0.600000 0.065559 0.329587
v -0.714891 -0.065559 0.329587
v 0.600000 0.000000 1.000000
v 0.600000 -0.195090 0.980785
v -0.600000 -0.195090 0.980785
v -0.600000 -0.000000 1.000000
v 0.600000 -0.382683 0.923880
v -0.600000 -0.382683 0.923880
v 0.600000 -0.555570 0.831470
v -0.600000 -0.555570 0.831470
v 0.600000 -0.707107 0.707107
v -0.600000 -0.707107 0.707107
v 0.600000 -0.831470 0.555570
v -0.600000 -0.831470 0.555570
v 0.600000 -0.923880 0.382683
v -0.600000 -0.923880 0.382683
v 0.600000 -0.980785 0.195090
v -0.600000 -0.980785 0.195090
v 0.600000 -1.000000 0.000000
v -0.600000 -1.000000 0.000000
v 0.600000 -0.980785 -0.195090
v -0.600000 -0.980785 -0.195090
v 0.600000 -0.923880 -0.382683
v -0.600000 -0.923880 -0.382683
v 0.600000 -0.831470 -0.555570
v -0.600000 -0.831470 -0.555570
v 0.600000 -0.707107 -0.707107
v -0.600000 -0.707107 -0.707107
v 0.600000 -0.555570 -0.831470
v -0.600000 -0.555570 -0.831470
v 0.600000 -0.382683 -0.923880
v -0.600000 -0.382683 -0.923880
v 0.600000 -0.195090 -0.980785
v -0.600000 -0.195090 -0.980785
v 0.600000 0.000000 -1.000000
v -0.600000 -0.000000 -1.000000
v 0.600000 0.195090 -0.980785
v -0.600000 0.195090 -0.980785
v 0.600000 0.382683 -0.923880
v -0.600000 0.382683 -0.923880
v 0.600000 0.555570 -0.831470
v -0.600000 0.555570 -0.831470
v 0.600000 0.707107 -0.707107
v -0.600000 0.707107 -0.707107
v 0.600000 0.831470 -0.555570
v -0.600000 0.831470 -0.555570
v 0.600000 0.923880 -0.382683
v -0.600000 0.923880 -0.382683
v 0.600000 0.980785 -0.195090
v -0.600000 0.980785 -0.195090
v 0.600000 1.000000 0.000000
v -0.600000 1.000000 0.000000
v 0.600000 0.980785 0.195090
v -0.600000 0.980785 0.195090
v 0.600000 0.923880 0.382683
v -0.600000 0.923880 0.382683
v 0.600000 0.831470 0.555570
v -0.600000 0.831470 0.555570
v 0.600000 0.707107 0.707107
v -0.600000 0.707107 0.707107
v 0.600000 0.555570 0.831470
v -0.600000 0.555570 0.831470
v 0.600000 0.382683 0.923880
v -0.600000 0.382683 0.923880
v 0.600000 0.195090 0.980785
v -0.600000 0.195090 0.980785
v 0.600000 0.000000 0.446571
v 0.600000 -0.087122 0.437991
v -0.600000 -0.087122 0.437991
v -0.600000 -0.000000 0.446571
v 0.600000 -0.170896 0.412578
v -0.600000 -0.170896 0.412578
v 0.600000 -0.248102 0.371311
v -0.600000 -0.248102 0.371311
v 0.600000 -0.315774 0.315774
v -0.600000 -0.315774 0.315774
v 0.600000 -0.371311 0.248102
v -0.600000 -0.371311 0.248102
v 0.600000 -0.412578 0.170896
v -0.600000 -0.412578 0.170896
v 0.600000 -0.437991 0.087122
v -0.600000 -0.437991 0.087122
v 0.600000 -0.446571 0.000000
v -0.600000 -0.446571 0.000000
v 0.600000 -0.437991 -0.087122
v -0.600000 -0.437991 -0.087122
v 0.600000 -0.412578 -0.170896
v -0.600000 -0.412578 -0.170896
v 0.600000 -0.371311 -0.248102
v -0.600000 -0.371311 -0.248102
v 0.600000 -0.315774 -0.315774
v -0.600000 -0.315774 -0.315774
v 0.600000 -0.248102 -0.371311
v -0.600000 -0.248102 -0.371311
v 0.600000 -0.170896 -0.412578
v -0.600000 -0.170896 -0.412578
v 0.600000 -0.087122 -0.437991
v -0.600000 -0.087122 -0.437991
v 0.600000 0.000000 -0.446571
v -0.600000 -0.000000 -0.446571
v 0.600000 0.087122 -0.437991
v -0.600000 0.087122 -0.437991
v 0.600000 0.170896 -0.412578
v -0.600000 0.170896 -0.412578
v 0.600000 0.248102 -0.371311
v -0.600000 0.248102 -0.371311
v 0.600000 0.315774 -0.315774
v -0.600000 0.315774 -0.315774
v 0.600000 0.371311 -0.248102
v -0.600000 0.371311 -0.248102
v 0.600000 0.412578 -0.170896
v -0.600000 0.412578 -0.170896
v 0.600000 0.437991 -0.087122
v -0.600000 0.437991 -0.087122
v 0.600000 0.446571 0.000000
v -0.600000 0.446571 0.000000
v 0.600000 0.437991 0.087122
v -0.600000 0.437991 0.087122
v 0.600000 0.412578 0.170896
v -0.600000 0.412578 0.170896
v 0.600000 0.371311 0.248102
v -0.600000 0.371311 0.248102
v 0.600000 0.315774 0.315774
v -0.600000 0.315774 0.315774
v 0.600000 0.248102 0.371311
v -0.600000 0.248102 0.371311
v 0.600000 0.170896 0.412578
v -0.600000 0.170896 0.412578
v 0.600000 0.087122 0.437991
v -0.600000 0.087122 0.437991
v -0.509297 -0.087122 0.437991
v -0.509297 -0.000000 0.446571
v -0.509297 -0.170896 0.412578
v -0.509297 -0.248102 0.371311
v -0.509297 -0.315774 0.315774
v -0.509297 -0.371311 0.248102
v -0.509297 -0.412578 0.170896
v -0.509297 -0.437991 0.087122
v -0.509297 -0.446571 0.000000
v -0.509297 -0.437991 -0.087122
v -0.509297 -0.412578 -0.170896
v -0.509297 -0.371311 -0.248102
v -0.509297 -0.315774 -0.315774
v -0.509297 -0.248102 -0.371311
v -0.509297 -0.170896 -0.412578
v -0.509297 -0.087122 -0.437991
v -0.509297 -0.000000 -0.446571
v -0.509297 0.087122 -0.437991
v -0.509297 0.170896 -0.412578
v -0.509297 0.248102 -0.371311
v -0.509297 0.315774 -0.315774
v -0.509297 0.371311 -0.248102
v -0.509297 0.412578 -0.170896
v -0.509297 0.437991 -0.087122
v -0.509297 0.446571 0.000000
v -0.509297 0.437991 0.087122
v -0.509297 0.412578 0.170896
v -0.509297 0.371311 0.248102
v -0.509297 0.315774 0.315774
v -0.509297 0.248102 0.371311
v -0.509297 0.170896 0.412578
v -0.509297 0.087122 0.437991
v -0.509297 -0.065559 0.329587
v -0.509297 -0.000000 0.336044
v -0.509297 -0.128599 0.310464
v -0.509297 -0.186696 0.279410
v -0.509297 -0.237619 0.237619
v -0.509297 -0.279410 0.186696
v -0.509297 -0.310464 0.128599
v -0.509297 -0.329587 0.065559
v -0.509297 -0.336044 0.000000
v -0.509297 -0.329587 -0.065559
v -0.509297 -0.310464 -0.128599
v -0.509297 -0.279410 -0.186696
v -0.509297 -0.237619 -0.237619
v -0.509297 -0.186696 -0.279410
v -0.509297 -0.128599 -0.310464
v -0.509297 -0.065559 -0.329587
v -0.509297 -0.000000 -0.336044
v -0.509297 0.065559 -0.329587
v -0.509297 0.128599 -0.310464
v -0.509297 0.186696 -0.279410
v -0.509297 0.237619 -0.237619
v -0.509297 0.279410 -0.186696
v -0.509297 0.310464 -0.128599
v -0.509297 0.329587 -0.065559
v -0.509297 0.336044 0.000000
v -0.509297 0.329587 0.065559
v -0.509297 0.310464 0.128599
v -0.509297 0.279410 0.186696
v -0.509297 0.237619 0.237619
v -0.509297 0.186696 0.279410
v -0.509297 0.128599 0.310464
v -0.509297 0.065559 0.329587
vn -0.0000 -0.0980 0.9952
vn -0.0000 -0.2903 0.9569
vn -0.0000 -0.4714 0.8819
vn -0.0000 -0.6344 0.7730
vn -0.0000 -0.7730 0.6344
vn -0.0000 -0.8819 0.4714
vn -0.0000 -0.9569 0.2903
vn -0.0000 -0.9952 0.0980
vn -0.0000 -0.9952 -0.0980
vn -0.0000 -0.9569 -0.2903
vn -0.0000 -0.8819 -0.4714
vn -0.0000 -0.7730 -0.6344
vn -0.0000 -0.6344 -0.7730
vn -0.0000 -0.4714 -0.8819
vn -0.0000 -0.2903 -0.9569
vn -0.0000 -0.0980 -0.9952
vn -0.0000 0.0980 -0.9952
vn -0.0000 0.2903 -0.9569
vn -0.0000 0.4714 -0.8819
vn -0.0000 0.6344 -0.7730
vn -0.0000 0.7730 -0.6344
vn -0.0000 0.8819 -0.4714
vn -0.0000 0.9569 -0.2903
vn -0.0000 0.9952 -0.0980
vn -0.0000 0.9952 0.0980
vn -0.0000 0.9569 0.2903
vn -0.0000 0.8819 0.4714
vn -0.0000 0.7730 0.6344
vn -0.0000 0.6344 0.7730
vn -0.0000 0.4714 0.8819
vn -1.0000 -0.0000 -0.0000
vn -0.0000 0.2903 0.9569
vn -0.0000 0.0980 0.9952
vn 1.0000 -0.0000 -0.0000
vt 1.000000 1.000000
vt 0.968750 0.500000
vt 1.000000 0.500000
vt 0.968750 1.000000
vt 0.937500 0.500000
vt 0.937500 1.000000
vt 0.906250 0.500000
vt 0.906250 1.000000
vt 0.875000 0.500000
vt 0.875000 1.000000
vt 0.843750 0.500000
vt 0.843750 1.000000
vt 0.812500 0.500000
vt 0.812500 1.000000
vt 0.781250 0.500000
vt 0.781250 1.000000
vt 0.750000 0.500000
vt 0.750000 1.000000
vt 0.718750 0.500000
vt 0.718750 1.000000
vt 0.687500 0.500000
vt 0.687500 1.000000
vt 0.656250 0.500000
vt 0.656250 1.000000
vt 0.625000 0.500000
vt 0.625000 1.000000
vt 0.593750 0.500000
vt 0.593750 1.000000
vt 0.562500 0.500000
vt 0.562500 1.000000
vt 0.531250 0.500000
vt 0.531250 1.000000
vt 0.500000 0.500000
vt 0.500000 1.000000
vt 0.468750 0.500000
vt 0.468750 1.000000
vt 0.437500 0.500000
vt 0.437500 1.000000
vt 0.406250 0.500000
vt 0.406250 1.000000
vt 0.375000 0.500000
vt 0.375000 1.000000
vt 0.343750 0.500000
vt 0.343750 1.000000
vt 0.312500 0.500000
vt 0.312500 1.000000
vt 0.281250 0.500000
vt 0.281250 1.000000
vt 0.250000 0.500000
vt 0.250000 1.000000
vt 0.218750 0.500000
vt 0.218750 1.000000
vt 0.187500 0.500000
vt 0.187500 1.000000
vt 0.156250 0.500000
vt 0.156250 1.000000
vt 0.125000 0.500000
vt 0.125000 1.000000
vt 0.093750 0.500000
vt 0.093750 1.000000
vt 0.062500 0.500000
vt 0.219136 0.175489
vt 0.324511 0.219136
vt 0.280864 0.324511
vt 0.062500 1.000000
vt 0.031250 0.500000
vt 0.031250 1.000000
vt 0.000000 0.500000
vt 0.765734 0.170899
vt 0.670899 0.234266
vt 0.734266 0.329101
vt 0.750000 0.357177
vt 0.796822 0.485388
vt 0.770909 0.355118
vt 0.250000 0.357177
vt 0.296822 0.485388
vt 0.250000 0.490000
vt 0.841844 0.471731
vt 0.791015 0.349019
vt 0.291015 0.349019
vt 0.270909 0.355118
vt 0.883337 0.449553
vt 0.809545 0.339115
vt 0.383337 0.449553
vt 0.341844 0.471731
vt 0.919706 0.419706
vt 0.825786 0.325786
vt 0.325786 0.325786
vt 0.309544 0.339115
vt 0.949553 0.383337
vt 0.839115 0.309544
vt 0.339114 0.309544
vt 0.419706 0.419706
vt 0.849019 0.291015
vt 0.971731 0.341844
vt 0.349019 0.291015
vt 0.449553 0.383337
vt 0.985388 0.296822
vt 0.855118 0.270909
vt 0.355118 0.270909
vt 0.471731 0.341844
vt 0.990000 0.250000
vt 0.857177 0.250000
vt 0.357177 0.250000
vt 0.485388 0.296822
vt 0.985388 0.203178
vt 0.855118 0.229091
vt 0.485388 0.203178
vt 0.490000 0.250000
vt 0.971731 0.158156
vt 0.849019 0.208985
vt 0.349019 0.208985
vt 0.355118 0.229091
vt 0.949553 0.116663
vt 0.839115 0.190456
vt 0.449553 0.116663
vt 0.471731 0.158156
vt 0.919706 0.080294
vt 0.825786 0.174214
vt 0.325786 0.174214
vt 0.339115 0.190456
vt 0.883337 0.050447
vt 0.809545 0.160885
vt 0.309544 0.160885
vt 0.419706 0.080294
vt 0.791015 0.150981
vt 0.841844 0.028269
vt 0.291015 0.150981
vt 0.383337 0.050447
vt 0.796822 0.014612
vt 0.770909 0.144882
vt 0.270909 0.144882
vt 0.341844 0.028269
vt 0.750000 0.010000
vt 0.750000 0.142823
vt 0.250000 0.142823
vt 0.296822 0.014612
vt 0.703178 0.014612
vt 0.729091 0.144882
vt 0.203178 0.014612
vt 0.250000 0.010000
vt 0.658156 0.028269
vt 0.708985 0.150981
vt 0.208985 0.150981
vt 0.229091 0.144882
vt 0.616663 0.050447
vt 0.690455 0.160885
vt 0.116663 0.050447
vt 0.158156 0.028269
vt 0.580294 0.080294
vt 0.674214 0.174214
vt 0.174214 0.174214
vt 0.190456 0.160885
vt 0.550447 0.116663
vt 0.660885 0.190456
vt 0.160885 0.190456
vt 0.080294 0.080294
vt 0.650981 0.208985
vt 0.528269 0.158156
vt 0.150981 0.208985
vt 0.050447 0.116663
vt 0.514612 0.203178
vt 0.644882 0.229091
vt 0.144882 0.229091
vt 0.028269 0.158156
vt 0.510000 0.250000
vt 0.642823 0.250000
vt 0.142823 0.250000
vt 0.014612 0.203178
vt 0.514612 0.296822
vt 0.644882 0.270909
vt 0.014612 0.296822
vt 0.010000 0.250000
vt 0.528269 0.341844
vt 0.650981 0.291015
vt 0.150981 0.291015
vt 0.144882 0.270909
vt 0.550447 0.383337
vt 0.660886 0.309544
vt 0.050447 0.383337
vt 0.028269 0.341844
vt 0.580294 0.419706
vt 0.674214 0.325786
vt 0.174214 0.325786
vt 0.160885 0.309544
vt 0.616663 0.449553
vt 0.690456 0.339115
vt 0.190456 0.339115
vt 0.080294 0.419706
vt 0.708985 0.349019
vt 0.658156 0.471731
vt 0.208985 0.349019
vt 0.116663 0.449553
vt 0.703178 0.485388
vt 0.729091 0.355118
vt 0.229091 0.355118
vt 0.158156 0.471731
vt 0.750000 0.490000
vt 0.203178 0.485388
vt 0.765734 0.329101
vt 0.780864 0.324511
vt 0.794807 0.317058
vt 0.807029 0.307029
vt 0.817058 0.294807
vt 0.824512 0.280864
vt 0.829101 0.265734
vt 0.830650 0.250000
vt 0.829101 0.234266
vt 0.824512 0.219136
vt 0.817059 0.205193
vt 0.807029 0.192971
vt 0.794807 0.182941
vt 0.780864 0.175489
vt 0.750000 0.169349
vt 0.734266 0.170899
vt 0.719136 0.175489
vt 0.705193 0.182942
vt 0.692971 0.192971
vt 0.682941 0.205193
vt 0.675489 0.219136
vt 0.669349 0.250000
vt 0.670899 0.265734
vt 0.675489 0.280864
vt 0.682941 0.294807
vt 0.692971 0.307029
vt 0.705193 0.317059
vt 0.719136 0.324511
vt 0.750000 0.330651
vt 0.329101 0.265734
vt 0.330651 0.250000
vt 0.265734 0.329101
vt 0.250000 0.330650
vt 0.294807 0.317058
vt 0.317059 0.294807
vt 0.307029 0.307029
vt 0.324511 0.280864
vt 0.329101 0.234266
vt 0.317058 0.205193
vt 0.294807 0.182941
vt 0.307029 0.192971
vt 0.265734 0.170899
vt 0.280864 0.175489
vt 0.234266 0.170899
vt 0.250000 0.169349
vt 0.205193 0.182941
vt 0.182941 0.205193
vt 0.192971 0.192971
vt 0.170899 0.234266
vt 0.175489 0.219136
vt 0.170899 0.265734
vt 0.169349 0.250000
vt 0.182942 0.294807
vt 0.175489 0.280864
vt 0.205193 0.317058
vt 0.192971 0.307028
vt 0.234266 0.329101
vt 0.219136 0.324511
vt 0.000000 1.000000
s 0
usemtl Material.001
f 68/1/1 66/2/1 65/3/1
f 67/4/2 69/5/2 66/2/2
f 70/6/3 71/7/3 69/5/3
f 72/8/4 73/9/4 71/7/4
f 74/10/5 75/11/5 73/9/5
f 76/12/6 77/13/6 75/11/6
f 78/14/7 79/15/7 77/13/7
f 80/16/8 81/17/8 79/15/8
f 82/18/9 83/19/9 81/17/9
f 84/20/10 85/21/10 83/19/10
f 86/22/11 87/23/11 85/21/11
f 88/24/12 89/25/12 87/23/12
f 90/26/13 91/27/13 89/25/13
f 92/28/14 93/29/14 91/27/14
f 94/30/15 95/31/15 93/29/15
f 96/32/16 97/33/16 95/31/16
f 98/34/17 99/35/17 97/33/17
f 100/36/18 101/37/18 99/35/18
f 102/38/19 103/39/19 101/37/19
f 104/40/20 105/41/20 103/39/20
f 106/42/21 107/43/21 105/41/21
f 108/44/22 109/45/22 107/43/22
f 110/46/23 111/47/23 109/45/23
f 112/48/24 113/49/24 111/47/24
f 114/50/25 115/51/25 113/49/25
f 116/52/26 117/53/26 115/51/26
f 118/54/27 119/55/27 117/53/27
f 120/56/28 121/57/28 119/55/28
f 122/58/29 123/59/29 121/57/29
f 124/60/30 125/61/30 123/59/30
f 126/65/32 127/66/32 125/61/32
f 128/67/33 65/68/33 127/66/33
f 31/69/34 47/70/34 63/71/34
f 129/72/34 66/73/34 130/74/34
f 132/75/31 67/76/31 68/77/31
f 130/74/34 69/78/34 133/79/34
f 134/80/31 67/76/31 131/81/31
f 133/79/34 71/82/34 135/83/34
f 134/80/31 72/84/31 70/85/31
f 135/83/34 73/86/34 137/87/34
f 138/88/31 72/84/31 136/89/31
f 137/87/34 75/90/34 139/91/34
f 140/92/31 74/93/31 138/88/31
f 141/94/34 75/90/34 77/95/34
f 142/96/31 76/97/31 140/92/31
f 141/94/34 79/98/34 143/99/34
f 144/100/31 78/101/31 142/96/31
f 143/99/34 81/102/34 145/103/34
f 146/104/31 80/105/31 144/100/31
f 145/103/34 83/106/34 147/107/34
f 146/104/31 84/108/31 82/109/31
f 147/107/34 85/110/34 149/111/34
f 150/112/31 84/108/31 148/113/31
f 149/111/34 87/114/34 151/115/34
f 150/112/31 88/116/31 86/117/31
f 151/115/34 89/118/34 153/119/34
f 154/120/31 88/116/31 152/121/31
f 153/119/34 91/122/34 155/123/34
f 156/124/31 90/125/31 154/120/31
f 157/126/34 91/122/34 93/127/34
f 158/128/31 92/129/31 156/124/31
f 157/126/34 95/130/34 159/131/34
f 160/132/31 94/133/31 158/128/31
f 159/131/34 97/134/34 161/135/34
f 162/136/31 96/137/31 160/132/31
f 161/135/34 99/138/34 163/139/34
f 162/136/31 100/140/31 98/141/31
f 163/139/34 101/142/34 165/143/34
f 166/144/31 100/140/31 164/145/31
f 165/143/34 103/146/34 167/147/34
f 166/144/31 104/148/31 102/149/31
f 167/147/34 105/150/34 169/151/34
f 170/152/31 104/148/31 168/153/31
f 169/151/34 107/154/34 171/155/34
f 172/156/31 106/157/31 170/152/31
f 173/158/34 107/154/34 109/159/34
f 174/160/31 108/161/31 172/156/31
f 173/158/34 111/162/34 175/163/34
f 176/164/31 110/165/31 174/160/31
f 175/163/34 113/166/34 177/167/34
f 178/168/31 112/169/31 176/164/31
f 177/167/34 115/170/34 179/171/34
f 178/168/31 116/172/31 114/173/31
f 179/171/34 117/174/34 181/175/34
f 182/176/31 116/172/31 180/177/31
f 181/175/34 119/178/34 183/179/34
f 182/176/31 120/180/31 118/181/31
f 183/179/34 121/182/34 185/183/34
f 186/184/31 120/180/31 184/185/31
f 185/183/34 123/186/34 187/187/34
f 188/188/31 122/189/31 186/184/31
f 189/190/34 123/186/34 125/191/34
f 190/192/31 124/193/31 188/188/31
f 189/190/34 127/194/34 191/195/34
f 192/196/31 126/197/31 190/192/31
f 191/195/34 65/198/34 129/72/34
f 132/75/31 128/199/31 192/196/31
f 3/200/34 129/72/34 130/74/34
f 3/200/34 133/79/34 5/201/34
f 7/202/34 133/79/34 135/83/34
f 7/202/34 137/87/34 9/203/34
f 9/203/34 139/91/34 11/204/34
f 11/204/34 141/94/34 13/205/34
f 15/206/34 141/94/34 143/99/34
f 15/206/34 145/103/34 17/207/34
f 19/208/34 145/103/34 147/107/34
f 19/208/34 149/111/34 21/209/34
f 23/210/34 149/111/34 151/115/34
f 23/210/34 153/119/34 25/211/34
f 25/211/34 155/123/34 27/212/34
f 27/212/34 157/126/34 29/213/34
f 31/69/34 157/126/34 159/131/34
f 31/69/34 161/135/34 33/214/34
f 35/215/34 161/135/34 163/139/34
f 35/215/34 165/143/34 37/216/34
f 39/217/34 165/143/34 167/147/34
f 39/217/34 169/151/34 41/218/34
f 41/218/34 171/155/34 43/219/34
f 43/219/34 173/158/34 45/220/34
f 47/70/34 173/158/34 175/163/34
f 47/70/34 177/167/34 49/221/34
f 51/222/34 177/167/34 179/171/34
f 51/222/34 181/175/34 53/223/34
f 55/224/34 181/175/34 183/179/34
f 55/224/34 185/183/34 57/225/34
f 57/225/34 187/187/34 59/226/34
f 59/226/34 189/190/34 61/227/34
f 63/71/34 189/190/34 191/195/34
f 63/71/34 129/72/34 1/228/34
f 68/1/1 67/4/1 66/2/1
f 67/4/2 70/6/2 69/5/2
f 70/6/3 72/8/3 71/7/3
f 72/8/4 74/10/4 73/9/4
f 74/10/5 76/12/5 75/11/5
f 76/12/6 78/14/6 77/13/6
f 78/14/7 80/16/7 79/15/7
f 80/16/8 82/18/8 81/17/8
f 82/18/9 84/20/9 83/19/9
f 84/20/10 86/22/10 85/21/10
f 86/22/11 88/24/11 87/23/11
f 88/24/12 90/26/12 89/25/12
f 90/26/13 92/28/13 91/27/13
f 92/28/14 94/30/14 93/29/14
f 94/30/15 96/32/15 95/31/15
f 96/32/16 98/34/16 97/33/16
f 98/34/17 100/36/17 99/35/17
f 100/36/18 102/38/18 101/37/18
f 102/38/19 104/40/19 103/39/19
f 104/40/20 106/42/20 105/41/20
f 106/42/21 108/44/21 107/43/21
f 108/44/22 110/46/22 109/45/22
f 110/46/23 112/48/23 111/47/23
f 112/48/24 114/50/24 113/49/24
f 114/50/25 116/52/25 115/51/25
f 116/52/26 118/54/26 117/53/26
f 118/54/27 120/56/27 119/55/27
f 120/56/28 122/58/28 121/57/28
f 122/58/29 124/60/29 123/59/29
f 124/60/30 126/65/30 125/61/30
f 126/65/32 128/67/32 127/66/32
f 128/67/33 68/258/33 65/68/33
f 63/71/34 1/228/34 3/200/34
f 3/200/34 5/201/34 7/202/34
f 7/202/34 9/203/34 11/204/34
f 11/204/34 13/205/34 15/206/34
f 15/206/34 17/207/34 19/208/34
f 19/208/34 21/209/34 23/210/34
f 23/210/34 25/211/34 27/212/34
f 27/212/34 29/213/34 31/69/34
f 31/69/34 33/214/34 35/215/34
f 35/215/34 37/216/34 39/217/34
f 39/217/34 41/218/34 43/219/34
f 43/219/34 45/220/34 47/70/34
f 47/70/34 49/221/34 51/222/34
f 51/222/34 53/223/34 55/224/34
f 55/224/34 57/225/34 59/226/34
f 59/226/34 61/227/34 63/71/34
f 63/71/34 3/200/34 7/202/34
f 7/202/34 11/204/34 15/206/34
f 15/206/34 19/208/34 23/210/34
f 23/210/34 27/212/34 31/69/34
f 31/69/34 35/215/34 39/217/34
f 39/217/34 43/219/34 47/70/34
f 47/70/34 51/222/34 55/224/34
f 55/224/34 59/226/34 63/71/34
f 63/71/34 7/202/34 15/206/34
f 15/206/34 23/210/34 31/69/34
f 31/69/34 39/217/34 47/70/34
f 47/70/34 55/224/34 63/71/34
f 63/71/34 15/206/34 31/69/34
f 129/72/34 65/198/34 66/73/34
f 132/75/31 131/81/31 67/76/31
f 130/74/34 66/73/34 69/78/34
f 134/80/31 70/85/31 67/76/31
f 133/79/34 69/78/34 71/82/34
f 134/80/31 136/89/31 72/84/31
f 135/83/34 71/82/34 73/86/34
f 138/88/31 74/93/31 72/84/31
f 137/87/34 73/86/34 75/90/34
f 140/92/31 76/97/31 74/93/31
f 141/94/34 139/91/34 75/90/34
f 142/96/31 78/101/31 76/97/31
f 141/94/34 77/95/34 79/98/34
f 144/100/31 80/105/31 78/101/31
f 143/99/34 79/98/34 81/102/34
f 146/104/31 82/109/31 80/105/31
f 145/103/34 81/102/34 83/106/34
f 146/104/31 148/113/31 84/108/31
f 147/107/34 83/106/34 85/110/34
f 150/112/31 86/117/31 84/108/31
f 149/111/34 85/110/34 87/114/34
f 150/112/31 152/121/31 88/116/31
f 151/115/34 87/114/34 89/118/34
f 154/120/31 90/125/31 88/116/31
f 153/119/34 89/118/34 91/122/34
f 156/124/31 92/129/31 90/125/31
f 157/126/34 155/123/34 91/122/34
f 158/128/31 94/133/31 92/129/31
f 157/126/34 93/127/34 95/130/34
f 160/132/31 96/137/31 94/133/31
f 159/131/34 95/130/34 97/134/34
f 162/136/31 98/141/31 96/137/31
f 161/135/34 97/134/34 99/138/34
f 162/136/31 164/145/31 100/140/31
f 163/139/34 99/138/34 101/142/34
f 166/144/31 102/149/31 100/140/31
f 165/143/34 101/142/34 103/146/34
f 166/144/31 168/153/31 104/148/31
f 167/147/34 103/146/34 105/150/34
f 170/152/31 106/157/31 104/148/31
f 169/151/34 105/150/34 107/154/34
f 172/156/31 108/161/31 106/157/31
f 173/158/34 171/155/34 107/154/34
f 174/160/31 110/165/31 108/161/31
f 173/158/34 109/159/34 111/162/34
f 176/164/31 112/169/31 110/165/31
f 175/163/34 111/162/34 113/166/34
f 178/168/31 114/173/31 112/169/31
f 177/167/34 113/166/34 115/170/34
f 178/168/31 180/177/31 116/172/31
f 179/171/34 115/170/34 117/174/34
f 182/176/31 118/181/31 116/172/31
f 181/175/34 117/174/34 119/178/34
f 182/176/31 184/185/31 120/180/31
f 183/179/34 119/178/34 121/182/34
f 186/184/31 122/189/31 120/180/31
f 185/183/34 121/182/34 123/186/34
f 188/188/31 124/193/31 122/189/31
f 189/190/34 187/187/34 123/186/34
f 190/192/31 126/197/31 124/193/31
f 189/190/34 125/191/34 127/194/34
f 192/196/31 128/199/31 126/197/31
f 191/195/34 127/194/34 65/198/34
f 132/75/31 68/77/31 128/199/31
f 3/200/34 1/228/34 129/72/34
f 3/200/34 130/74/34 133/79/34
f 7/202/34 5/201/34 133/79/34
f 7/202/34 135/83/34 137/87/34
f 9/203/34 137/87/34 139/91/34
f 11/204/34 139/91/34 141/94/34
f 15/206/34 13/205/34 141/94/34
f 15/206/34 143/99/34 145/103/34
f 19/208/34 17/207/34 145/103/34
f 19/208/34 147/107/34 149/111/34
f 23/210/34 21/209/34 149/111/34
f 23/210/34 151/115/34 153/119/34
f 25/211/34 153/119/34 155/123/34
f 27/212/34 155/123/34 157/126/34
f 31/69/34 29/213/34 157/126/34
f 31/69/34 159/131/34 161/135/34
f 35/215/34 33/214/34 161/135/34
f 35/215/34 163/139/34 165/143/34
f 39/217/34 37/216/34 165/143/34
f 39/217/34 167/147/34 169/151/34
f 41/218/34 169/151/34 171/155/34
f 43/219/34 171/155/34 173/158/34
f 47/70/34 45/220/34 173/158/34
f 47/70/34 175/163/34 177/167/34
f 51/222/34 49/221/34 177/167/34
f 51/222/34 179/171/34 181/175/34
f 55/224/34 53/223/34 181/175/34
f 55/224/34 183/179/34 185/183/34
f 57/225/34 185/183/34 187/187/34
f 59/226/34 187/187/34 189/190/34
f 63/71/34 61/227/34 189/190/34
f 63/71/34 191/195/34 129/72/34
usemtl Material.002
f 28/62/31 44/63/31 60/64/31
f 142/96/23 200/100/23 144/100/23
f 182/176/11 220/185/11 184/185/11
f 168/153/4 213/152/4 170/152/4
f 154/120/29 206/124/29 156/124/29
f 140/92/22 199/96/22 142/96/22
f 180/177/10 219/176/10 182/176/10
f 166/144/3 212/153/3 168/153/3
f 152/121/28 205/120/28 154/120/28
f 192/196/16 194/75/16 132/75/16
f 138/88/21 198/92/21 140/92/21
f 178/168/9 218/177/9 180/177/9
f 164/145/2 211/144/2 166/144/2
f 150/112/27 204/121/27 152/121/27
f 190/192/15 224/196/15 192/196/15
f 136/89/20 197/88/20 138/88/20
f 176/164/8 217/168/8 178/168/8
f 162/136/1 210/145/1 164/145/1
f 148/113/26 203/112/26 150/112/26
f 188/188/14 223/192/14 190/192/14
f 134/80/19 196/89/19 136/89/19
f 174/160/7 216/164/7 176/164/7
f 160/132/33 209/136/33 162/136/33
f 146/104/25 202/113/25 148/113/25
f 186/184/13 222/188/13 188/188/13
f 131/81/18 195/80/18 134/80/18
f 172/156/6 215/160/6 174/160/6
f 158/128/32 208/132/32 160/132/32
f 144/100/24 201/104/24 146/104/24
f 184/185/12 221/184/12 186/184/12
f 132/75/17 193/81/17 131/81/17
f 170/152/5 214/156/5 172/156/5
f 156/124/30 207/128/30 158/128/30
f 232/229/8 48/230/8 233/230/8
f 225/231/31 194/75/31 226/232/31
f 225/231/31 195/80/31 193/81/31
f 228/233/31 195/80/31 227/64/31
f 228/233/31 197/88/31 196/89/31
f 230/234/31 197/88/31 229/235/31
f 230/234/31 199/96/31 198/92/31
f 232/229/31 199/96/31 231/236/31
f 232/229/31 201/104/31 200/100/31
f 234/237/31 201/104/31 233/230/31
f 234/237/31 203/112/31 202/113/31
f 236/238/31 203/112/31 235/63/31
f 236/238/31 205/120/31 204/121/31
f 238/239/31 205/120/31 237/240/31
f 238/239/31 207/128/31 206/124/31
f 240/241/31 207/128/31 239/242/31
f 240/241/31 209/136/31 208/132/31
f 242/243/31 209/136/31 241/244/31
f 242/243/31 211/144/31 210/145/31
f 244/245/31 211/144/31 243/62/31
f 244/245/31 213/152/31 212/153/31
f 246/246/31 213/152/31 245/247/31
f 246/246/31 215/160/31 214/156/31
f 248/248/31 215/160/31 247/249/31
f 248/248/31 217/168/31 216/164/31
f 250/250/31 217/168/31 249/251/31
f 250/250/31 219/176/31 218/177/31
f 252/252/31 219/176/31 251/253/31
f 252/252/31 221/184/31 220/185/31
f 254/254/31 221/184/31 253/255/31
f 254/254/31 223/192/31 222/188/31
f 256/256/31 223/192/31 255/257/31
f 256/256/31 194/75/31 224/196/31
f 246/246/22 20/249/22 247/249/22
f 233/230/9 46/237/9 234/237/9
f 247/249/23 18/248/23 248/248/23
f 234/237/10 44/63/10 235/63/10
f 248/248/24 16/251/24 249/251/24
f 235/63/11 42/238/11 236/238/11
f 249/251/25 14/250/25 250/250/25
f 236/238/12 40/240/12 237/240/12
f 250/250/26 12/253/26 251/253/26
f 237/240/13 38/239/13 238/239/13
f 251/253/27 10/252/27 252/252/27
f 238/239/14 36/242/14 239/242/14
f 226/232/1 64/231/1 225/231/1
f 252/252/28 8/255/28 253/255/28
f 239/242/15 34/241/15 240/241/15
f 225/231/2 60/64/2 227/64/2
f 253/255/29 6/254/29 254/254/29
f 240/241/16 32/244/16 241/244/16
f 227/64/3 58/233/3 228/233/3
f 254/254/30 4/257/30 255/257/30
f 241/244/17 30/243/17 242/243/17
f 228/233/4 56/235/4 229/235/4
f 255/257/32 2/256/32 256/256/32
f 242/243/18 28/62/18 243/62/18
f 229/235/5 54/234/5 230/234/5
f 256/256/33 62/232/33 226/232/33
f 243/62/19 26/245/19 244/245/19
f 230/234/6 52/236/6 231/236/6
f 244/245/20 24/247/20 245/247/20
f 231/236/7 50/229/7 232/229/7
f 245/247/21 22/246/21 246/246/21
f 60/64/31 64/231/31 62/232/31
f 62/232/31 2/256/31 4/257/31
f 4/257/31 6/254/31 8/255/31
f 8/255/31 10/252/31 12/253/31
f 12/253/31 14/250/31 16/251/31
f 16/251/31 18/248/31 20/249/31
f 20/249/31 22/246/31 24/247/31
f 24/247/31 26/245/31 28/62/31
f 28/62/31 30/243/31 32/244/31
f 32/244/31 34/241/31 36/242/31
f 36/242/31 38/239/31 40/240/31
f 40/240/31 42/238/31 44/63/31
f 44/63/31 46/237/31 48/230/31
f 48/230/31 50/229/31 52/236/31
f 52/236/31 54/234/31 56/235/31
f 56/235/31 58/233/31 60/64/31
f 60/64/31 62/232/31 4/257/31
f 4/257/31 8/255/31 12/253/31
f 12/253/31 16/251/31 20/249/31
f 20/249/31 24/247/31 28/62/31
f 28/62/31 32/244/31 36/242/31
f 36/242/31 40/240/31 44/63/31
f 44/63/31 48/230/31 52/236/31
f 52/236/31 56/235/31 60/64/31
f 60/64/31 4/257/31 12/253/31
f 12/253/31 20/249/31 28/62/31
f 28/62/31 36/242/31 44/63/31
f 44/63/31 52/236/31 60/64/31
f 60/64/31 12/253/31 28/62/31
f 142/96/23 199/96/23 200/100/23
f 182/176/11 219/176/11 220/185/11
f 168/153/4 212/153/4 213/152/4
f 154/120/29 205/120/29 206/124/29
f 140/92/22 198/92/22 199/96/22
f 180/177/10 218/177/10 219/176/10
f 166/144/3 211/144/3 212/153/3
f 152/121/28 204/121/28 205/120/28
f 192/196/16 224/196/16 194/75/16
f 138/88/21 197/88/21 198/92/21
f 178/168/9 217/168/9 218/177/9
f 164/145/2 210/145/2 211/144/2
f 150/112/27 203/112/27 204/121/27
f 190/192/15 223/192/15 224/196/15
f 136/89/20 196/89/20 197/88/20
f 176/164/8 216/164/8 217/168/8
f 162/136/1 209/136/1 210/145/1
f 148/113/26 202/113/26 203/112/26
f 188/188/14 222/188/14 223/192/14
f 134/80/19 195/80/19 196/89/19
f 174/160/7 215/160/7 216/164/7
f 160/132/33 208/132/33 209/136/33
f 146/104/25 201/104/25 202/113/25
f 186/184/13 221/184/13 222/188/13
f 131/81/18 193/81/18 195/80/18
f 172/156/6 214/156/6 215/160/6
f 158/128/32 207/128/32 208/132/32
f 144/100/24 200/100/24 201/104/24
f 184/185/12 220/185/12 221/184/12
f 132/75/17 194/75/17 193/81/17
f 170/152/5 213/152/5 214/156/5
f 156/124/30 206/124/30 207/128/30
f 232/229/8 50/229/8 48/230/8
f 225/231/31 193/81/31 194/75/31
f 225/231/31 227/64/31 195/80/31
f 228/233/31 196/89/31 195/80/31
f 228/233/31 229/235/31 197/88/31
f 230/234/31 198/92/31 197/88/31
f 230/234/31 231/236/31 199/96/31
f 232/229/31 200/100/31 199/96/31
f 232/229/31 233/230/31 201/104/31
f 234/237/31 202/113/31 201/104/31
f 234/237/31 235/63/31 203/112/31
f 236/238/31 204/121/31 203/112/31
f 236/238/31 237/240/31 205/120/31
f 238/239/31 206/124/31 205/120/31
f 238/239/31 239/242/31 207/128/31
f 240/241/31 208/132/31 207/128/31
f 240/241/31 241/244/31 209/136/31
f 242/243/31 210/145/31 209/136/31
f 242/243/31 243/62/31 211/144/31
f 244/245/31 212/153/31 211/144/31
f 244/245/31 245/247/31 213/152/31
f 246/246/31 214/156/31 213/152/31
f 246/246/31 247/249/31 215/160/31
f 248/248/31 216/164/31 215/160/31
f 248/248/31 249/251/31 217/168/31
f 250/250/31 218/177/31 217/168/31
f 250/250/31 251/253/31 219/176/31
f 252/252/31 220/185/31 219/176/31
f 252/252/31 253/255/31 221/184/31
f 254/254/31 222/188/31 221/184/31
f 254/254/31 255/257/31 223/192/31
f 256/256/31 224/196/31 223/192/31
f 256/256/31 226/232/31 194/75/31
f 246/246/22 22/246/22 20/249/22
f 233/230/9 48/230/9 46/237/9
f 247/249/23 20/249/23 18/248/23
f 234/237/10 46/237/10 44/63/10
f 248/248/24 18/248/24 16/251/24
f 235/63/11 44/63/11 42/238/11
f 249/251/25 16/251/25 14/250/25
f 236/238/12 42/238/12 40/240/12
f 250/250/26 14/250/26 12/253/26
f 237/240/13 40/240/13 38/239/13
f 251/253/27 12/253/27 10/252/27
f 238/239/14 38/239/14 36/242/14
f 226/232/1 62/232/1 64/231/1
f 252/252/28 10/252/28 8/255/28
f 239/242/15 36/242/15 34/241/15
f 225/231/2 64/231/2 60/64/2
f 253/255/29 8/255/29 6/254/29
f 240/241/16 34/241/16 32/244/16
f 227/64/3 60/64/3 58/233/3
f 254/254/30 6/254/30 4/257/30
f 241/244/17 32/244/17 30/243/17
f 228/233/4 58/233/4 56/235/4
f 255/257/32 4/257/32 2/256/32
f 242/243/18 30/243/18 28/62/18
f 229/235/5 56/235/5 54/234/5
f 256/256/33 2/256/33 62/232/33
f 243/62/19 28/62/19 26/245/19
f 230/234/6 54/234/6 52/236/6
f 244/245/20 26/245/20 24/247/20
f 231/236/7 52/236/7 50/229/7
f 245/247/21 24/247/21 22/246/21
